<?xml version="1.0" encoding="utf-8"?>
<!-- Generator: Adobe Illustrator 26.5.3, SVG Export Plug-In . SVG Version: 6.00 Build 0)  -->
<svg version="1.1" id="Layer_1" xmlns="http://www.w3.org/2000/svg" xmlns:xlink="http://www.w3.org/1999/xlink" x="0px" y="0px"
	 viewBox="0 0 353 372.8" style="enable-background:new 0 0 353 372.8;" xml:space="preserve">
<style type="text/css">
	.st0{fill:none;stroke:#000000;stroke-width:5;stroke-miterlimit:10;}
	.st1{display:none;}
</style>
<g id="Layer_1_00000173845321093476904240000010748249899121645724_">
	<path class="st0" d="M130.4,63.6c17.8,9.9,35.8,8.5,42.5-0.3c4.2-5.5,3.5-14,3.1-19.4c-0.1-1.5-1.2-12.8-7.5-21.8
		C157.3,6.1,130.5-0.8,109,9c-17.3,7.9-31.5,26.7-29.6,48.5C81.3,80.1,99.8,99,123.9,102"/>
	<path class="st0" d="M95.2,149.4C81.7,142,74,129.3,76.3,119.3c3.3-14.3,25.9-18.2,36.6-18.4c4.9-0.1,8.9,0.6,11.9,1.3"/>
	<path class="st0" d="M50.3,57C36.6,68.4,33.1,78.5,32.4,85.6c-1.2,13,6.7,19.1,3.1,30.6c-2.9,9-8.9,8.7-17.9,19.9
		C4.5,152.4,3,171,2.8,174.4c-1.4,20.5,7.4,36.3,9.2,39.3c7.9,13.7,14.8,13.9,17.4,25.5c2.1,9.3-1.6,12.5-1,27.6
		c0,1,0.6,14.6,4.1,23.5c8.8,22.8,41.5,29.9,48,31.2"/>
	<path class="st0" d="M120.7,259.2c-6,4.8-14.3,12.3-22.5,23c-7.8,10.2-13.8,18.1-15.8,28.1c-3.9,19.4,6.6,50,33.2,57.2
		c21.3,5.8,42.8-6.1,52.3-21.6c6.5-10.6,6.6-21.8,6.7-27.2c0.1-8.9,0.2-19.1-6.2-23.2c-6.4-4-17.4-1-26.7,7.7"/>
	<path class="st0" d="M73.8,267.9c8.8,4,17.6,7.9,26.4,11.8"/>
	<path class="st0" d="M76.3,267.9"/>
	<path class="st0" d="M264.7,103c-1.4-2.9-10.1-20.4-29.6-25.5c-9.4-2.5-17.4-1.1-22,0"/>
	<path class="st0" d="M300,104.5c9.9,6,27,18.4,38.3,40.3c5.9,11.5,17.6,34,9.2,52.6c-6.1,13.4-15.8,24-15.8,24
		c-5.2,5.7-10.7,10-10.7,16.9c0,3.2,1.1,4.2,2,10.7c0.7,5.2,0.6,9.1,0.5,12.3c-0.1,2.1-0.6,21-4.6,31.1
		c-8.8,22.5-44.9,28.5-48.5,29.1"/>
	<path class="st0" d="M266.3,251.5c-0.1,3.8-0.8,18.9-12.8,31.7c-14.6,15.6-34.4,15-37.3,14.8"/>
	<path class="st0" d="M173.7,339.4c8.7,19.1,27.7,31.2,48.2,30.6c18.2-0.5,36.5-11.1,44.4-29.6c8-18.9,3.2-41.3-12.3-55.8"/>
	<path class="st0" d="M216.7,249.5c-1.5-1.7-6.7-7.3-15.3-8.7c-7.6-1.2-16.8,1-21.9,7.3c-4.5,5.5-4.6,12.8-4.9,26.6
		c0,1.9,0,3.4,0,4.4"/>
	<path class="st0" d="M254,17.2c-2.1-2.1-14.6-14.4-33.7-13.8c-18,0.6-29.3,12.2-32.2,15.3c-9.8,10.9-11.1,23.7-13.3,49
		c-1,11-0.9,17-0.5,51.1c0.3,30.8,0.5,46.3,0.5,53.1c0.1,21.3,0.1,35.8,0,55.1c-0.1,25.3-0.2,62.9-0.3,115.4"/>
	<path class="st0" d="M221.3,137.7c-5.6-0.5-15.6-2.2-26.4-8.3c-10.8-6.2-17.3-13.9-20.6-18.5"/>
	<path class="st0" d="M231.7,75.9c1.6-4.7,6.3-15.8,17.7-24c2-1.4,21.6-15,43.9-6.6c19.8,7.5,30.6,28.1,29.6,46.5
		c-0.5,10.3-4.7,18.2-7.5,22.6"/>
	<path class="st0" d="M293.3,188.7c-2.5,2.8-10.4,11.1-23.5,13.3c-19.4,3.3-33.6-9.7-35.2-11.2"/>
	<path class="st0" d="M249.9,174.4c-3.8,5.2-13.2,16.4-29.6,23c-20.3,8.2-38.4,4-44.3,2.4"/>
	<path class="st0" d="M174.8,167c0.1-1.6,0.1-3.9-0.5-6.5c-0.6-2.9-1.8-8.2-6.2-10.8c-3.9-2.4-8.4-1.3-10.4-0.9
		c-4.9,1.1-8,4-11.7,7.4c-2.5,2.4-3.9,4.1-8.6,10.3c-2.1,2.7-3.4,4.1-8.7,11.3c-2.9,4-14,18.9-28,30.4c-6.4,5.2-16.3,12.2-30.6,17.9
		"/>
	<path class="st0" d="M56.9,174.4c7.2,4.2,15,9.1,23,14.8c8.1,5.8,15.3,11.5,21.6,17"/>
</g>
<g id="Layer_2_00000052095523610212174380000003990618839368189070_" class="st1">
</g>
</svg>
